<?xml version="1.0" standalone="no"?>
<!DOCTYPE svg PUBLIC "-//W3C//DTD SVG 20010904//EN"
 "http://www.w3.org/TR/2001/REC-SVG-20010904/DTD/svg10.dtd">
<svg version="1.0" xmlns="http://www.w3.org/2000/svg"
 width="1024.000000pt" height="1024.000000pt" viewBox="0 0 1024.000000 1024.000000"
 preserveAspectRatio="xMidYMid meet">
<metadata>
Created by potrace 1.14, written by Peter Selinger 2001-2017
</metadata>
<g transform="translate(0.000000,1024.000000) scale(0.100000,-0.100000)"
fill="#000000" stroke="none">
<path d="M1440 10234 c-14 -3 -50 -9 -80 -14 -30 -5 -71 -12 -90 -15 -120 -20
-326 -98 -462 -176 -345 -198 -584 -488 -726 -884 -23 -63 -57 -209 -69 -294
-10 -72 -11 -7374 0 -7460 29 -253 145 -534 310 -753 260 -347 649 -571 1087
-626 75 -9 7361 -9 7430 1 134 18 203 34 325 77 392 136 729 431 903 792 79
164 111 258 145 423 l22 110 0 3685 c0 2027 -4 3710 -8 3740 -4 30 -9 67 -11
82 -3 21 -11 59 -21 98 -97 386 -334 725 -662 948 -168 114 -424 217 -613 248
-25 4 -56 9 -70 13 -27 6 -7370 11 -7410 5z"/>
</g>
</svg>
